<?xml version="1.0" encoding="UTF-8" standalone="no"?>
<!DOCTYPE svg PUBLIC "-//W3C//DTD SVG 1.1//EN" "http://www.w3.org/Graphics/SVG/1.1/DTD/svg11.dtd">
<svg width="100%" height="100%" viewBox="0 0 1024 1024" version="1.1" xmlns="http://www.w3.org/2000/svg" xmlns:xlink="http://www.w3.org/1999/xlink" xml:space="preserve" xmlns:serif="http://www.serif.com/" style="fill-rule:evenodd;clip-rule:evenodd;stroke-linecap:round;stroke-linejoin:round;stroke-miterlimit:1.5;">
    <g>
        <g transform="matrix(-1.22465e-16,-2,-2,1.22465e-16,1024,1024)">
            <g>
                <g transform="matrix(1.00186,0,0,1.00186,-3.71073,-10.4943)">
                    <circle cx="259.796" cy="265.43" r="224.343" style="fill:white;"/>
                </g>
                <g transform="matrix(-4.51697,4.80589e-32,5.9173e-32,-4.51697,482.752,482.752)">
                    <path d="M50.2,5.2C25.4,5.2 5.2,25.4 5.2,50.2C5.2,62.9 10.6,74.9 19.8,83.3L12.8,90.3L35.8,94.2L31.9,71.2L24,79.1C16,71.8 11.2,61.3 11.2,50.2C11.2,28.7 28.7,11.2 50.2,11.2C71.7,11.2 89.2,28.7 89.2,50.2C89.2,71.7 71.7,89.2 50.2,89.2L50.2,95.2C75,95.2 95.2,75 95.2,50.2C95.2,25.4 75,5.2 50.2,5.2Z" style="fill-rule:nonzero;"/>
                    <path d="M50.2,1.322C23.263,1.322 1.322,23.263 1.322,50.2C1.322,62.617 6.073,74.418 14.308,83.307L10.058,87.558C9.032,88.584 8.664,90.096 9.105,91.478C9.546,92.861 10.721,93.881 12.152,94.124L35.152,98.024C36.39,98.234 37.654,97.831 38.542,96.942C39.431,96.054 39.834,94.79 39.624,93.552L35.724,70.552C35.481,69.121 34.461,67.946 33.078,67.505C31.696,67.064 30.184,67.432 29.158,68.458C29.158,68.458 24.015,73.6 24.015,73.6C18.379,67.252 15.078,58.933 15.078,50.2C15.078,30.838 30.838,15.078 50.2,15.078C69.562,15.078 85.322,30.838 85.322,50.2C85.322,69.562 69.562,85.322 50.2,85.322C48.058,85.322 46.322,87.058 46.322,89.2L46.322,95.2C46.322,97.342 48.058,99.078 50.2,99.078C77.137,99.078 99.078,77.137 99.078,50.2C99.078,23.263 77.137,1.322 50.2,1.322ZM50.2,5.2C75,5.2 95.2,25.4 95.2,50.2C95.2,75 75,95.2 50.2,95.2L50.2,89.2C71.7,89.2 89.2,71.7 89.2,50.2C89.2,28.7 71.7,11.2 50.2,11.2C28.7,11.2 11.2,28.7 11.2,50.2C11.2,61.3 16,71.8 24,79.1L31.9,71.2L35.8,94.2L12.8,90.3L19.8,83.3C10.6,74.9 5.2,62.9 5.2,50.2C5.2,25.4 25.4,5.2 50.2,5.2Z" style="fill:white;"/>
                </g>
            </g>
            <g>
                <g transform="matrix(1.00186,0,0,1.00186,-3.71073,-10.4943)">
                    <circle cx="259.796" cy="265.43" r="224.343" style="fill:white;"/>
                </g>
                <g transform="matrix(-4.51697,4.80589e-32,5.9173e-32,-4.51697,482.752,482.752)">
                    <path d="M50.2,5.2C25.4,5.2 5.2,25.4 5.2,50.2C5.2,62.9 10.6,74.9 19.8,83.3L12.8,90.3L35.8,94.2L31.9,71.2L24,79.1C16,71.8 11.2,61.3 11.2,50.2C11.2,28.7 28.7,11.2 50.2,11.2C71.7,11.2 89.2,28.7 89.2,50.2C89.2,71.7 71.7,89.2 50.2,89.2L50.2,95.2C75,95.2 95.2,75 95.2,50.2C95.2,25.4 75,5.2 50.2,5.2Z" style="fill-rule:nonzero;"/>
                    <path d="M50.2,1.322C23.263,1.322 1.322,23.263 1.322,50.2C1.322,62.617 6.073,74.418 14.308,83.307L10.058,87.558C9.032,88.584 8.664,90.096 9.105,91.478C9.546,92.861 10.721,93.881 12.152,94.124L35.152,98.024C36.39,98.234 37.654,97.831 38.542,96.942C39.431,96.054 39.834,94.79 39.624,93.552L35.724,70.552C35.481,69.121 34.461,67.946 33.078,67.505C31.696,67.064 30.184,67.432 29.158,68.458C29.158,68.458 24.015,73.6 24.015,73.6C18.379,67.252 15.078,58.933 15.078,50.2C15.078,30.838 30.838,15.078 50.2,15.078C69.562,15.078 85.322,30.838 85.322,50.2C85.322,69.562 69.562,85.322 50.2,85.322C48.058,85.322 46.322,87.058 46.322,89.2L46.322,95.2C46.322,97.342 48.058,99.078 50.2,99.078C77.137,99.078 99.078,77.137 99.078,50.2C99.078,23.263 77.137,1.322 50.2,1.322ZM50.2,5.2C75,5.2 95.2,25.4 95.2,50.2C95.2,75 75,95.2 50.2,95.2L50.2,89.2C71.7,89.2 89.2,71.7 89.2,50.2C89.2,28.7 71.7,11.2 50.2,11.2C28.7,11.2 11.2,28.7 11.2,50.2C11.2,61.3 16,71.8 24,79.1L31.9,71.2L35.8,94.2L12.8,90.3L19.8,83.3C10.6,74.9 5.2,62.9 5.2,50.2C5.2,25.4 25.4,5.2 50.2,5.2Z" style="fill:white;"/>
                </g>
            </g>
        </g>
    </g>
    <g id="Crosshair" transform="matrix(2,0,0,2,0,0)">
        <g transform="matrix(1.66555,0,0,1.66555,-159.192,-140.414)">
            <circle cx="249.282" cy="238.008" r="52.364" style="fill:none;stroke:rgb(125,0,0);stroke-width:9.88px;"/>
        </g>
        <g transform="matrix(-3.49495e-16,1,-1.90256,-1.83697e-16,667.093,0)">
            <path d="M256,142.912L256,197.553" style="fill:none;stroke:rgb(125,0,0);stroke-width:8.74px;"/>
        </g>
        <g transform="matrix(1,-7.2238e-16,1.85561e-15,1.90256,-3.12639e-13,-155.093)">
            <path d="M256,142.912L256,197.553" style="fill:none;stroke:rgb(125,0,0);stroke-width:8.74px;"/>
        </g>
        <g transform="matrix(-2.17059e-16,-1,1.90256,-8.94208e-16,-155.093,512)">
            <path d="M256,142.912L256,197.553" style="fill:none;stroke:rgb(125,0,0);stroke-width:8.74px;"/>
        </g>
        <g transform="matrix(-1,1.55826e-16,-7.77709e-16,-1.90256,512,667.093)">
            <path d="M256,142.912L256,197.553" style="fill:none;stroke:rgb(125,0,0);stroke-width:8.74px;"/>
        </g>
    </g>
</svg>
